<svg xmlns="http://www.w3.org/2000/svg" version="1.1" xmlns:xlink="http://www.w3.org/1999/xlink" xmlns:svgjs="http://svgjs.com/svgjs" width="12px" height="12px"><svg xmlns="http://www.w3.org/2000/svg" xml:space="preserve" width="12px" height="12px" version="1.1" style="shape-rendering:geometricPrecision; text-rendering:geometricPrecision; image-rendering:optimizeQuality; fill-rule:evenodd; clip-rule:evenodd" viewBox="0 0 1.6 1.6" xmlns:xlink="http://www.w3.org/1999/xlink" xmlns:xodm="http://www.corel.com/coreldraw/odm/2003">
 <defs>
  <style type="text/css">
   
    .fil0 {fill:#CCCCCC}
    .fil1 {fill:white}
    .fil3 {fill:black;fill-rule:nonzero}
    .fil2 {fill:#E46002;fill-rule:nonzero}
   
  </style>
 </defs>
 <g id="SvgjsG1004">
  <metadata id="SvgjsMetadata1003"></metadata>
  <g id="SvgjsG1002">
   <path class="fil0" d="M0.1 0.08l1.47 0c0.02,0 0.03,0.01 0.03,0.02l0 1.47c0,0.02 -0.01,0.03 -0.03,0.03l-1.47 0c-0.01,0 -0.02,-0.01 -0.02,-0.03l0 -1.47c0,-0.01 0.01,-0.02 0.02,-0.02z"></path>
   <g>
    <path class="fil1" d="M0.05 0.03l1.47 0c0.02,0 0.03,0.01 0.03,0.02l0 1.47c0,0.02 -0.01,0.03 -0.03,0.03l-1.47 0c-0.01,0 -0.02,-0.01 -0.02,-0.03l0 -1.47c0,-0.01 0.01,-0.02 0.02,-0.02z"></path>
    <path id="SvgjsPath1001" class="fil2" d="M1.52 0.05l-1.47 0 0 -0.05 1.47 0 0 0 0 0.05zm0.05 0l-0.05 0 0 0 0 0 0 0 0 0 0 0 0 0 0 0 0 0 0 0 0 0 0 0 0 0 0 0 0 0 0 0 0 0 0 0 0 0 0 0 0 0 0 0 0 0 0 0 0 0 0 0 0 0 0 0 0 0 0 0 0 0 0 0 0 0 0 0 0 -0.05 0.01 0 0 0 0 0 0 0 0.01 0 0 0 0 0 0 0 0 0 0.01 0.01 0 0 0 0 0 0 0.01 0 0 0 0 0 0 0.01 0 0 0 0 0 0 0.01 0 0 0.01 0 0 0 0 0 0 0 0.01 0 0 0 0 0 0 0 0 0 0.01 0 0 0 0zm-0.05 1.47l0 -1.47 0.05 0 0 1.47 0 0 -0.05 0zm0 0.05l0 -0.05 0 0 0 0 0 0 0 0 0 0 0 0 0 0 0 0 0 0 0 0 0 0 0 0 0 0 0 0 0 0 0 0 0 0 0 0 0 0 0 0 0 0 0 0 0 0 0 0 0 0 0 0 0 0 0 0 0 0 0 0 0 0 0 0 0 0 0.05 0 0 0.01 0 0 0 0 0 0 0 0.01 0 0 0 0 0 0 0 0.01 0 0 0 0 -0.01 0 0 0 0 0 0 0.01 0 0 0 0 -0.01 0 0 0 0 0 0 0.01 0 0 0 0 -0.01 0 0 0 0 0 0 0 -0.01 0 0 0 0 0 0 0 -0.01 0 0 0zm-1.47 -0.05l1.47 0 0 0.05 -1.47 0 0 0 0 -0.05zm-0.05 0l0.05 0 0 0 0 0 0 0 0 0 0 0 0 0 0 0 0 0 0 0 0 0 0 0 0 0 0 0 0 0 0 0 0 0 0 0 0 0 0 0 0 0 0 0 0 0 0 0 0 0 0 0 0 0 0 0 0 0 0 0 0 0 0 0 0 0 0 0 0 0.05 0 0 -0.01 0 0 0 0 0 0 0 0 0 -0.01 0 0 0 0 0 0 0 -0.01 0 0 -0.01 0 0 0 0 0 0 -0.01 0 0 0 0 0 0 -0.01 0 0 0 0 0 0 -0.01 -0.01 0 0 0 0 0 0 0 0 0 -0.01 0 0 0 0 0 0 0 -0.01 0 0zm0.05 -1.47l0 1.47 -0.05 0 0 -1.47 0 0 0.05 0zm0 -0.05l0 0.05 0 0 0 0 0 0 0 0 0 0 0 0 0 0 0 0 0 0 0 0 0 0 0 0 0 0 0 0 0 0 0 0 0 0 0 0 0 0 0 0 0 0 0 0 0 0 0 0 0 0 0 0 0 0 0 0 0 0 0 0 0 0 0 0 0 0 -0.05 0 0 0 0 -0.01 0 0 0 0 0 0 0 0 0 -0.01 0 0 0 0 0.01 0 0 -0.01 0 0 0 0 0 0 0 0 0 -0.01 0.01 0 0 0 0 0 0 0 0 0 0.01 0 0 -0.01 0 0 0 0 0.01 0 0 0 0 0 0 0 0 0 0.01 0 0 0 0 0z"></path>
   </g>
   <g id="SvgjsG1000">
    <g>
     <polygon class="fil3" points="1.13,0.69 0.44,0.69 0.44,0.63 1.13,0.63 "></polygon>
    </g>
    <g>
     <polygon class="fil3" points="0.44,0.88 1.13,0.88 1.13,0.94 0.44,0.94 "></polygon>
    </g>
   </g>
  </g>
 </g>
</svg><style>@media (prefers-color-scheme: light) { :root { filter: none; } }
@media (prefers-color-scheme: dark) { :root { filter: none; } }
</style></svg>