<?xml version="1.0" encoding="UTF-8"?>
<!DOCTYPE svg PUBLIC "-//W3C//DTD SVG 1.1//EN" "http://www.w3.org/Graphics/SVG/1.1/DTD/svg11.dtd">
<!-- Creator: CorelDRAW 2020 (64-Bit) -->
<svg xmlns="http://www.w3.org/2000/svg" xml:space="preserve" width="15px" height="15px" version="1.1" style="shape-rendering:geometricPrecision; text-rendering:geometricPrecision; image-rendering:optimizeQuality; fill-rule:evenodd; clip-rule:evenodd"
viewBox="0 0 0.5 0.5"
 xmlns:xlink="http://www.w3.org/1999/xlink"
 xmlns:xodm="http://www.corel.com/coreldraw/odm/2003">
 <defs>
  <style type="text/css">
   <![CDATA[
    .fil0 {fill:#E46002}
    .fil1 {fill:white;fill-rule:nonzero}
   ]]>
  </style>
 </defs>
 <g id="Layer_x0020_1">
  <metadata id="CorelCorpID_0Corel-Layer"/>
  <rect class="fil0" width="0.5" height="0.5" rx="0.17" ry="0.14"/>
  <path class="fil1" d="M0.24 0.38c0,0.01 0,0.01 0,0.01 0,0.01 0.01,0.01 0.01,0.02 0.01,0 0.02,0 0.03,0l0 0.01c-0.02,0.01 -0.04,0.01 -0.05,0.01 -0.01,0 -0.02,0 -0.02,-0.01 -0.01,0 -0.01,-0.01 -0.01,-0.02 0,0 0,-0.01 0,-0.02l0.03 -0.15c0,0 0,0 0,0 0,-0.01 0,-0.01 0,-0.01 0,0 0,-0.01 0,-0.01 -0.01,0 -0.02,0 -0.03,0l0 -0.01c0.02,-0.01 0.04,-0.01 0.05,-0.01 0.01,0 0.02,0 0.02,0 0.01,0.01 0.01,0.01 0.01,0.02 0,0 0,0.01 0,0.01l-0.04 0.16zm0.06 -0.28c0,0 0,0.01 -0.01,0.02 0,0 -0.01,0 -0.02,0 -0.01,0 -0.01,0 -0.02,0 0,-0.01 0,-0.01 0,-0.02 0,-0.01 0,-0.02 0,-0.02 0.01,-0.01 0.02,-0.01 0.02,-0.01 0.01,0 0.02,0 0.02,0.01 0.01,0 0.01,0.01 0.01,0.02z"/>
 </g>
</svg>
